<?xml version="1.0" encoding="UTF-8" standalone="no"?><!DOCTYPE svg PUBLIC "-//W3C//DTD SVG 1.1//EN" "http://www.w3.org/Graphics/SVG/1.1/DTD/svg11.dtd"><svg width="100%" height="100%" viewBox="0 0 48 48" version="1.1" xmlns="http://www.w3.org/2000/svg" xmlns:xlink="http://www.w3.org/1999/xlink" xml:space="preserve" xmlns:serif="http://www.serif.com/" style="fill-rule:evenodd;clip-rule:evenodd;stroke-linejoin:round;stroke-miterlimit:2;"><path d="M23.175,30.662l10.001,-10.002l2.171,2.172c0.587,0.586 1.538,0.586 2.124,-0l3.187,-3.187c0.585,-0.586 0.585,-1.537 -0,-2.124l-2.172,-2.171l0.531,-0.531l3.233,3.233c0.587,0.586 1.538,0.586 2.125,0l3.186,-3.187c0.585,-0.586 0.585,-1.536 -0,-2.124l-3.234,-3.232l2.472,-2.472c0.588,-0.586 0.588,-1.538 0,-2.124l-4.157,-4.157c-0.586,-0.586 -1.537,-0.586 -2.124,-0l-23.676,23.675c-1.455,-0.619 -3.055,-0.963 -4.734,-0.963c-6.682,0 -12.108,5.426 -12.108,12.108c0,6.683 5.425,12.108 12.108,12.108c6.681,-0 12.106,-5.425 12.106,-12.108c-0,-1.75 -0.371,-3.412 -1.039,-4.914l-0,0Zm-2.892,-1.356c-0.478,0.476 -0.578,1.213 -0.245,1.801c0.747,1.32 1.172,2.846 1.172,4.469c-0,5.025 -4.078,9.104 -9.102,9.104c-5.024,0 -9.104,-4.079 -9.104,-9.104c-0,-5.024 4.079,-9.103 9.104,-9.103c1.565,-0 3.04,0.396 4.327,1.095c0.584,0.316 1.308,0.211 1.778,-0.259l23.367,-23.368l2.034,2.034l-2.473,2.472c-0.586,0.586 -0.586,1.537 0,2.124l3.234,3.232l-1.063,1.062l-3.233,-3.232c-0.587,-0.587 -1.538,-0.587 -2.123,0l-2.656,2.655c-0.587,0.587 -0.587,1.537 0,2.124l2.171,2.171l-1.062,1.062l-2.171,-2.171c-0.587,-0.587 -1.538,-0.587 -2.124,0l-11.831,11.832Zm-8.301,0.611c-3.124,0 -5.66,2.535 -5.66,5.659c0,3.125 2.536,5.66 5.66,5.66c3.122,0 5.659,-2.535 5.659,-5.66c0,-3.124 -2.537,-5.659 -5.659,-5.659Zm-0,3.004c1.465,0 2.655,1.19 2.655,2.655c0,1.467 -1.19,2.656 -2.655,2.656c-1.467,0 -2.656,-1.189 -2.656,-2.656c-0,-1.465 1.189,-2.655 2.656,-2.655Z"/></svg>