<?xml version="1.0" encoding="UTF-8" standalone="no"?><!DOCTYPE svg PUBLIC "-//W3C//DTD SVG 1.1//EN" "http://www.w3.org/Graphics/SVG/1.1/DTD/svg11.dtd"><svg width="100%" height="100%" viewBox="0 0 48 48" version="1.1" xmlns="http://www.w3.org/2000/svg" xmlns:xlink="http://www.w3.org/1999/xlink" xml:space="preserve" xmlns:serif="http://www.serif.com/" style="fill-rule:evenodd;clip-rule:evenodd;stroke-linejoin:round;stroke-miterlimit:2;"><path d="M13.878,12.479l4.12,4.423c1.862,-1.234 4.213,-1.536 6.355,-0.768l2.421,-5.913c-2.235,-1.885 -1.304,-6.215 2.258,-6.215c4.655,0 4.562,7.053 -0.023,6.983l-2.584,6.285c1.396,1.117 2.351,2.747 2.63,4.539l7.379,0.675c0.279,-4.934 6.378,-7.123 9.683,-3.608c3.515,3.725 0.815,9.567 -4.05,9.567c-2.537,0 -3.957,-1.652 -3.98,-1.652c-0.559,-0.536 -0.978,-1.187 -1.257,-1.909l-7.821,-0.698c-0.35,2.002 -1.56,3.747 -3.282,4.818l1.07,7.798c4.4,0.814 6.169,6.308 2.933,9.543c-1.001,1.025 -2.42,1.653 -3.98,1.653c-2.537,0 -3.957,-1.653 -4.003,-1.653c-3.143,-3.142 -1.56,-8.449 2.676,-9.473l-0.931,-6.96c-2.444,0.535 -4.911,-0.233 -6.634,-1.932l-0.046,-0.047l-7.473,2.468c0.07,4.981 -7.216,4.958 -7.216,0.093c0,-3.748 4.539,-4.772 6.448,-2.328l6.844,-2.258c-1.118,-2.444 -0.792,-5.307 0.838,-7.402l-4.12,-4.445c-5.052,3.305 -11.848,-0.326 -11.848,-6.401c-0,-6.797 8.24,-10.219 13.058,-5.424c2.769,2.77 3.002,7.192 0.535,10.242l0,-0.001Zm14.665,-3.957c2.095,0.489 1.978,-2.142 0.489,-2.142c-1.327,0 -1.42,1.746 -0.489,2.142Zm-3.189,10.963c-3.026,-3.026 -8.24,-0.884 -8.24,3.422c0,1.327 0.559,2.537 1.42,3.398c0,0.373 3.841,2.98 6.82,0c1.932,-1.932 1.839,-5.12 0,-6.82Zm19.041,1.001c-3.072,-3.072 -7.704,1.583 -4.655,4.632c2.071,2.072 5.61,0.606 5.61,-2.304c-0,-0.885 -0.373,-1.769 -0.955,-2.328l0,0Zm-16.317,19.553c-3.072,-3.072 -7.705,1.583 -4.655,4.633c2.071,2.071 5.61,0.605 5.61,-2.305c-0,-0.885 -0.373,-1.769 -0.955,-2.328l0,0Zm-21.205,-10.102c-0.559,-1.42 -2.979,-0.628 -2.281,1.141c0.559,1.396 2.979,0.605 2.281,-1.141Zm4.795,-26.024c-3.306,-3.305 -9.008,-0.954 -9.008,3.748c-0,4.679 5.703,7.053 9.008,3.724c2.072,-2.048 2.072,-5.4 0,-7.472Z" style="fill-rule:nonzero;"/></svg>