<?xml version="1.0" encoding="UTF-8" standalone="no"?><!DOCTYPE svg PUBLIC "-//W3C//DTD SVG 1.1//EN" "http://www.w3.org/Graphics/SVG/1.1/DTD/svg11.dtd"><svg width="100%" height="100%" viewBox="0 0 48 48" version="1.1" xmlns="http://www.w3.org/2000/svg" xmlns:xlink="http://www.w3.org/1999/xlink" xml:space="preserve" xmlns:serif="http://www.serif.com/" style="fill-rule:evenodd;clip-rule:evenodd;stroke-linejoin:round;stroke-miterlimit:2;"><g id="Layer1"><path d="M42.032,11.987l-10.622,-10.672c-0.86,-0.86 -1.973,-1.315 -3.187,-1.315l-19.119,-0c-1.214,-0 -2.327,0.455 -3.186,1.315c-0.86,0.86 -1.315,1.973 -1.315,3.187l-0,38.996c-0,2.479 2.023,4.502 4.501,4.502l29.792,-0c2.478,-0 4.501,-2.023 4.501,-4.502l0,-28.324c0,-1.214 -0.505,-2.327 -1.365,-3.187l-0,0Zm-12.241,-6.676l8.295,8.295l-7.434,-0c-0.506,-0 -0.86,-0.405 -0.86,-0.86l-0.001,-7.435Zm9.661,38.238c0,0.304 -0.253,0.556 -0.556,0.556l-29.792,0c-0.303,0 -0.556,-0.252 -0.556,-0.556l-0,-39.047c-0,-0.202 0.101,-0.355 0.152,-0.405c0.101,-0.101 0.202,-0.152 0.404,-0.152l16.742,0l0,8.801c0,2.681 2.175,4.805 4.805,4.805l8.75,0l0.001,25.998l0.05,0Z" style="fill-rule:nonzero;"/><path d="M25.492,28.324c-0.506,-0.556 -1.062,-1.315 -1.568,-2.225c1.113,-3.794 1.265,-6.424 0.355,-7.739c-0.456,-0.708 -1.214,-1.062 -2.074,-1.062c-1.012,-0 -1.821,0.455 -2.175,1.366c-0.759,1.77 0.405,5.007 1.77,7.637c-0.354,1.214 -0.859,2.579 -1.466,4.046c-0.304,0.81 -0.708,1.619 -1.113,2.378c-3.035,1.163 -6.373,2.933 -6.778,5.058c-0.151,0.809 0.102,1.568 0.81,2.124c0.405,0.354 0.86,0.506 1.366,0.506c0.202,-0 0.404,-0.051 0.606,-0.101c1.872,-0.455 3.844,-3.237 5.362,-5.969c0.86,-0.303 1.871,-0.657 2.933,-0.961c1.265,-0.354 2.428,-0.657 3.44,-0.859c1.871,1.517 3.54,2.326 4.956,2.326c1.012,0.051 1.922,-0.354 2.631,-1.112c1.112,-1.113 0.657,-2.125 0.505,-2.428c-0.809,-1.366 -3.54,-1.669 -7.536,-0.91c-0.608,-0.608 -1.316,-1.316 -2.024,-2.075l0,0Zm-10.723,10.066c-0.151,0.05 -0.202,-0 -0.354,-0.253c0.101,-0.506 1.062,-1.467 3.136,-2.479c-1.062,1.518 -2.073,2.58 -2.782,2.732l0,-0Zm7.031,-18.917c0.051,-0.101 0.051,-0.152 0.354,-0.152c0.304,0 0.405,0.102 0.456,0.202c0.354,0.506 0.354,1.821 -0.051,3.895c-0.658,-1.72 -1.063,-3.288 -0.759,-3.945l0,0Zm1.214,11.987c-0.354,0.102 -0.759,0.203 -1.163,0.355c0.101,-0.253 0.202,-0.506 0.303,-0.708c0.354,-0.911 0.708,-1.771 0.961,-2.58c0.304,0.455 0.658,0.86 0.911,1.163c0.404,0.405 0.809,0.81 1.163,1.214c-0.658,0.152 -1.416,0.354 -2.175,0.556l-0,0Zm10.217,0.86c-0.253,0.455 -0.658,0.506 -1.214,0.506c-0.607,0 -1.416,-0.303 -2.276,-0.809c2.479,-0.253 3.743,-0.152 3.49,0.303l0,0Z" style="fill-rule:nonzero;"/></g></svg>