<?xml version="1.0" encoding="UTF-8" standalone="no"?><!DOCTYPE svg PUBLIC "-//W3C//DTD SVG 1.1//EN" "http://www.w3.org/Graphics/SVG/1.1/DTD/svg11.dtd"><svg width="100%" height="100%" viewBox="0 0 48 48" version="1.1" xmlns="http://www.w3.org/2000/svg" xmlns:xlink="http://www.w3.org/1999/xlink" xml:space="preserve" xmlns:serif="http://www.serif.com/" style="fill-rule:evenodd;clip-rule:evenodd;stroke-linejoin:round;stroke-miterlimit:2;"><path d="M24,48c-13.255,-0 -24,-10.745 -24,-24c-0,-13.255 10.745,-24 24,-24c13.255,0 24,10.745 24,24c-0,13.255 -10.745,24 -24,24Zm-8.391,-23.421c-0.864,-0.809 -2.22,-0.766 -3.029,0.098c-0.81,0.863 -0.766,2.219 0.097,3.029l6.857,6.428c0.921,0.862 2.383,0.748 3.157,-0.248l12.001,-15.429c0.726,-0.934 0.558,-2.28 -0.376,-3.007c-0.934,-0.726 -2.281,-0.558 -3.007,0.376l-10.558,13.574l-5.142,-4.821Z" style="fill-rule:nonzero;"/></svg>