<?xml version="1.0" encoding="UTF-8" standalone="no"?><!DOCTYPE svg PUBLIC "-//W3C//DTD SVG 1.1//EN" "http://www.w3.org/Graphics/SVG/1.1/DTD/svg11.dtd"><svg width="100%" height="100%" viewBox="0 0 48 48" version="1.1" xmlns="http://www.w3.org/2000/svg" xmlns:xlink="http://www.w3.org/1999/xlink" xml:space="preserve" xmlns:serif="http://www.serif.com/" style="fill-rule:evenodd;clip-rule:evenodd;stroke-linejoin:round;stroke-miterlimit:2;"><path d="M-0,30.545l4.727,4.728l0.727,0.727l0.728,-0.727c1.816,-1.817 4.729,-1.816 6.545,-0c1.817,1.816 1.817,4.729 0,6.545l-0.727,0.727l0.727,0.727l4.728,4.728l30.545,-30.546l-5.454,-5.454l-0.728,0.727c-1.816,1.816 -4.729,1.816 -6.545,0c-1.816,-1.816 -1.816,-4.729 -0,-6.545l0.727,-0.728l-4.727,-4.727l-0.728,-0.727l-29.818,29.818l-0.727,0.727l0,0Zm2.909,0.001l18.546,-18.546l2.182,2.182l1.454,-1.455l-2.182,-2.182l7.637,-7.636l2.614,2.613c-1.906,2.612 -1.696,6.305 0.658,8.66c2.355,2.354 6.037,2.553 8.648,0.647l2.625,2.625l-7.636,7.637l-2.182,-2.182l-1.455,1.455l2.182,2.182l-18.545,18.545l-2.625,-2.625c1.905,-2.611 1.706,-6.293 -0.648,-8.648c-2.355,-2.354 -6.048,-2.565 -8.659,-0.659l-2.614,-2.613Zm13.455,-9.092l2.022,4.75l-3.5,3.955l5.194,-0.557l2.591,4.455l1.193,-5.102l5.102,-1.193l-4.455,-2.591l0.557,-5.194l-3.954,3.5l-4.751,-2.022l0.001,-0.001Zm8.727,-5.818l2.909,2.909l1.455,-1.454l-2.909,-2.909l-1.455,1.454Zm4.364,4.364l2.909,2.909l1.455,-1.455l-2.91,-2.909l-1.454,1.455Z" style="fill-rule:nonzero;"/></svg>